<?xml version="1.0" encoding="UTF-8"?><svg xmlns="http://www.w3.org/2000/svg" viewBox="0 0 1917.5 699.14"><defs><style>.c{fill:#fff;}.d{font-family:MyriadPro-Regular, Myriad Pro;font-size:349.86px;}</style></defs><g id="a"><g><rect width="1917.5" height="386.86"/><rect class="c" x="34.31" y="59.21" width="336.4" height="269.12"/><rect class="c" x="407.05" y="59.21" width="336.4" height="269.12"/><rect class="c" x="1164.63" y="57.86" width="336.4" height="269.12"/><rect class="c" x="787.86" y="57.86" width="336.4" height="269.12"/><rect class="c" x="1541.4" y="59.21" width="336.4" height="269.12"/><g><rect class="c" x="406.39" y="335.2" width="30.95" height="45.75" rx="6.08" ry="6.08"/><rect class="c" x="450.03" y="335.2" width="30.95" height="45.75" rx="6.08" ry="6.08"/><rect class="c" x="493.66" y="335.2" width="30.95" height="45.75" rx="6.08" ry="6.08"/><rect class="c" x="537.3" y="335.2" width="30.95" height="45.75" rx="6.08" ry="6.08"/><rect class="c" x="580.93" y="335.2" width="30.95" height="45.75" rx="6.08" ry="6.08"/><rect class="c" x="624.57" y="335.2" width="30.95" height="45.75" rx="6.08" ry="6.08"/><rect class="c" x="668.21" y="335.2" width="30.95" height="45.75" rx="6.08" ry="6.08"/><rect class="c" x="711.84" y="335.2" width="30.95" height="45.75" rx="6.08" ry="6.08"/></g><g><rect class="c" x="790.15" y="335.2" width="30.95" height="45.75" rx="6.08" ry="6.08"/><rect class="c" x="833.78" y="335.2" width="30.95" height="45.75" rx="6.08" ry="6.08"/><rect class="c" x="877.42" y="335.2" width="30.95" height="45.75" rx="6.08" ry="6.08"/><rect class="c" x="921.06" y="335.2" width="30.95" height="45.75" rx="6.08" ry="6.08"/><rect class="c" x="964.69" y="335.2" width="30.95" height="45.75" rx="6.08" ry="6.08"/><rect class="c" x="1008.33" y="335.2" width="30.95" height="45.75" rx="6.08" ry="6.08"/><rect class="c" x="1051.97" y="335.2" width="30.95" height="45.75" rx="6.08" ry="6.08"/><rect class="c" x="1095.6" y="335.2" width="30.95" height="45.75" rx="6.08" ry="6.08"/></g><g><rect class="c" x="1164.36" y="335.84" width="30.95" height="45.75" rx="6.08" ry="6.08"/><rect class="c" x="1207.99" y="335.84" width="30.95" height="45.75" rx="6.08" ry="6.08"/><rect class="c" x="1251.63" y="335.84" width="30.95" height="45.75" rx="6.08" ry="6.08"/><rect class="c" x="1295.27" y="335.84" width="30.95" height="45.75" rx="6.08" ry="6.08"/><rect class="c" x="1338.9" y="335.84" width="30.95" height="45.75" rx="6.08" ry="6.08"/><rect class="c" x="1382.54" y="335.84" width="30.95" height="45.75" rx="6.08" ry="6.08"/><rect class="c" x="1426.18" y="335.84" width="30.95" height="45.75" rx="6.08" ry="6.08"/><rect class="c" x="1469.81" y="335.84" width="30.95" height="45.75" rx="6.08" ry="6.08"/></g><g><rect class="c" x="1541.39" y="335.84" width="30.95" height="45.75" rx="6.08" ry="6.08"/><rect class="c" x="1585.02" y="335.84" width="30.95" height="45.75" rx="6.08" ry="6.08"/><rect class="c" x="1628.66" y="335.84" width="30.95" height="45.75" rx="6.08" ry="6.08"/><rect class="c" x="1672.3" y="335.84" width="30.95" height="45.75" rx="6.08" ry="6.08"/><rect class="c" x="1715.93" y="335.84" width="30.95" height="45.75" rx="6.08" ry="6.08"/><rect class="c" x="1759.57" y="335.84" width="30.95" height="45.75" rx="6.08" ry="6.08"/><rect class="c" x="1803.21" y="335.84" width="30.95" height="45.75" rx="6.08" ry="6.08"/><rect class="c" x="1846.84" y="335.84" width="30.95" height="45.75" rx="6.08" ry="6.08"/></g><g><rect class="c" x="1541.39" y="7.51" width="30.95" height="45.75" rx="6.08" ry="6.08"/><rect class="c" x="1585.02" y="7.51" width="30.95" height="45.75" rx="6.08" ry="6.08"/><rect class="c" x="1628.66" y="7.51" width="30.95" height="45.75" rx="6.08" ry="6.08"/><rect class="c" x="1672.3" y="7.51" width="30.95" height="45.75" rx="6.08" ry="6.08"/><rect class="c" x="1715.93" y="7.51" width="30.95" height="45.75" rx="6.08" ry="6.08"/><rect class="c" x="1759.57" y="7.51" width="30.95" height="45.75" rx="6.08" ry="6.08"/><rect class="c" x="1803.21" y="7.51" width="30.95" height="45.75" rx="6.08" ry="6.08"/><rect class="c" x="1846.84" y="7.51" width="30.95" height="45.75" rx="6.08" ry="6.08"/></g><text class="d" transform="translate(1602.55 306.26)"><tspan x="0" y="0">A</tspan></text><text class="d" transform="translate(1238.72 306.26)"><tspan x="0" y="0">R</tspan></text><text class="d" transform="translate(870 306.26)"><tspan x="0" y="0">E</tspan></text><text class="d" transform="translate(525.59 307.6)"><tspan x="0" y="0">-</tspan></text><text class="d" transform="translate(119.95 306.26)"><tspan x="0" y="0">L</tspan></text><text/><g><rect class="c" x="33.65" y="335.2" width="30.95" height="45.75" rx="6.08" ry="6.08"/><rect class="c" x="77.29" y="335.2" width="30.95" height="45.75" rx="6.08" ry="6.08"/><rect class="c" x="120.93" y="335.2" width="30.95" height="45.75" rx="6.08" ry="6.08"/><rect class="c" x="164.56" y="335.2" width="30.95" height="45.75" rx="6.08" ry="6.08"/><rect class="c" x="208.2" y="335.2" width="30.95" height="45.75" rx="6.08" ry="6.08"/><rect class="c" x="251.84" y="335.2" width="30.95" height="45.75" rx="6.08" ry="6.08"/><rect class="c" x="295.47" y="335.2" width="30.95" height="45.75" rx="6.08" ry="6.08"/><rect class="c" x="339.11" y="335.2" width="30.95" height="45.75" rx="6.08" ry="6.08"/></g><g><rect class="c" x="1164.18" y="7.01" width="30.95" height="45.75" rx="6.08" ry="6.08"/><rect class="c" x="1207.81" y="7.01" width="30.95" height="45.75" rx="6.08" ry="6.08"/><rect class="c" x="1251.45" y="7.01" width="30.95" height="45.75" rx="6.08" ry="6.08"/><rect class="c" x="1295.09" y="7.01" width="30.95" height="45.75" rx="6.08" ry="6.08"/><rect class="c" x="1338.72" y="7.01" width="30.95" height="45.75" rx="6.08" ry="6.08"/><rect class="c" x="1382.36" y="7.01" width="30.95" height="45.75" rx="6.08" ry="6.08"/><rect class="c" x="1426" y="7.01" width="30.95" height="45.75" rx="6.08" ry="6.08"/><rect class="c" x="1469.63" y="7.01" width="30.95" height="45.75" rx="6.08" ry="6.08"/></g><g><rect class="c" x="787.4" y="7.01" width="30.95" height="45.75" rx="6.08" ry="6.08"/><rect class="c" x="831.04" y="7.01" width="30.95" height="45.75" rx="6.08" ry="6.08"/><rect class="c" x="874.68" y="7.01" width="30.95" height="45.75" rx="6.08" ry="6.08"/><rect class="c" x="918.31" y="7.01" width="30.95" height="45.75" rx="6.08" ry="6.08"/><rect class="c" x="961.95" y="7.01" width="30.95" height="45.75" rx="6.08" ry="6.08"/><rect class="c" x="1005.59" y="7.01" width="30.95" height="45.75" rx="6.08" ry="6.08"/><rect class="c" x="1049.22" y="7.01" width="30.95" height="45.75" rx="6.08" ry="6.08"/><rect class="c" x="1092.86" y="7.01" width="30.95" height="45.75" rx="6.08" ry="6.08"/></g><g><rect class="c" x="406.59" y="7.01" width="30.95" height="45.75" rx="6.08" ry="6.08"/><rect class="c" x="450.23" y="7.01" width="30.95" height="45.75" rx="6.08" ry="6.08"/><rect class="c" x="493.87" y="7.01" width="30.95" height="45.75" rx="6.08" ry="6.08"/><rect class="c" x="537.5" y="7.01" width="30.95" height="45.75" rx="6.08" ry="6.08"/><rect class="c" x="581.14" y="7.01" width="30.95" height="45.75" rx="6.08" ry="6.08"/><rect class="c" x="624.78" y="7.01" width="30.95" height="45.75" rx="6.08" ry="6.08"/><rect class="c" x="668.41" y="7.01" width="30.95" height="45.75" rx="6.08" ry="6.08"/><rect class="c" x="712.05" y="7.01" width="30.95" height="45.75" rx="6.08" ry="6.08"/></g><g><rect class="c" x="34.31" y="6.73" width="30.95" height="45.75" rx="6.08" ry="6.08"/><rect class="c" x="77.95" y="6.73" width="30.95" height="45.75" rx="6.08" ry="6.08"/><rect class="c" x="121.59" y="6.73" width="30.95" height="45.75" rx="6.08" ry="6.08"/><rect class="c" x="165.22" y="6.73" width="30.95" height="45.75" rx="6.08" ry="6.08"/><rect class="c" x="208.86" y="6.73" width="30.95" height="45.75" rx="6.08" ry="6.08"/><rect class="c" x="252.5" y="6.73" width="30.95" height="45.75" rx="6.08" ry="6.08"/><rect class="c" x="296.13" y="6.73" width="30.95" height="45.75" rx="6.08" ry="6.08"/><rect class="c" x="339.77" y="6.73" width="30.95" height="45.75" rx="6.08" ry="6.08"/></g></g></g><g id="b"/></svg>