<?xml version="1.0" encoding="UTF-8"?><svg id="a" xmlns="http://www.w3.org/2000/svg" viewBox="0 0 709 691"><defs><style>.b,.c{fill:#fff;}.d,.e,.f,.c{stroke:#000;stroke-miterlimit:10;}.e{stroke-width:30px;}.e,.f{fill:none;}.f{stroke-width:8px;}.c{stroke-width:15px;}</style></defs><ellipse class="c" cx="354.5" cy="345.5" rx="347" ry="338"/><g><path d="M349,554.5c-46.62,0-91.19-22.62-125.48-63.7-33.06-39.6-52.02-91.83-52.02-143.3,0-105.87,79.63-192,177.5-192s177.5,86.13,177.5,192c0,51.47-18.96,103.7-52.02,143.3-34.29,41.08-78.86,63.7-125.48,63.7Z"/><path d="M349,156c23.89,0,47.06,5.06,68.87,15.04,21.08,9.64,40,23.44,56.26,41.02,16.26,17.59,29.03,38.07,37.95,60.87,9.24,23.62,13.92,48.7,13.92,74.57,0,51.35-18.92,103.47-51.9,142.98-16.44,19.69-35.37,35.22-56.28,46.17-22,11.52-45.16,17.36-68.82,17.36s-46.82-5.84-68.82-17.36c-20.9-10.94-39.84-26.47-56.28-46.17-32.98-39.51-51.9-91.63-51.9-142.98,0-25.86,4.68-50.95,13.92-74.57,8.92-22.81,21.69-43.29,37.95-60.87,16.26-17.58,35.19-31.38,56.26-41.02,21.81-9.98,44.98-15.04,68.87-15.04m0-1c-98.31,0-178,86.19-178,192.5s79.69,207.5,178,207.5,178-101.19,178-207.5-79.69-192.5-178-192.5h0Z"/></g><rect class="b" x="-10" y="267" width="257" height="160" rx="73.68" ry="73.68" transform="translate(465.5 228.5) rotate(90)"/><rect class="d" x="78.5" y="258.5" width="80" height="177" rx="33.68" ry="33.68"/><rect class="b" x="453" y="268" width="257" height="160" rx="73.68" ry="73.68" transform="translate(929.5 -233.5) rotate(90)"/><rect class="d" x="541.5" y="259.5" width="80" height="177" rx="33.68" ry="33.68"/><path class="b" d="M463.41,605.41c-24.24,0-46.07-13.45-56.97-35.09l-8.92-17.72c-7.66-15.21-8.94-32.5-3.59-48.67,5.34-16.17,16.66-29.3,31.87-36.96l57.22-28.81c8.86-4.46,18.77-6.82,28.65-6.82,24.24,0,46.07,13.45,56.97,35.09l8.92,17.72c15.81,31.4,3.12,69.81-28.28,85.62l-57.22,28.81c-8.86,4.46-18.77,6.82-28.65,6.82Z"/><rect class="d" x="453.86" y="462.59" width="67.36" height="111.59" rx="23.76" ry="23.76" transform="translate(731.32 -150.19) rotate(63.28)"/><path class="f" d="M575.66,436s-1.24,33.32-22.62,46.17c0,0-45.61,17.62-46.03,19.83"/><path class="e" d="M119,268c40.27-103.24,124.43-172.2,234-170,105.45,2.11,188.93,70.86,228,170"/></svg>